<?xml version="1.0" standalone="no"?>
<!DOCTYPE svg PUBLIC "-//W3C//DTD SVG 20010904//EN"
 "http://www.w3.org/TR/2001/REC-SVG-20010904/DTD/svg10.dtd">
<svg version="1.0" xmlns="http://www.w3.org/2000/svg"
 width="400.000000pt" height="400.000000pt" viewBox="0 0 400.000000 400.000000"
 preserveAspectRatio="xMidYMid meet">
<metadata>
Created by potrace 1.14, written by Peter Selinger 2001-2017
</metadata>
<g transform="translate(0.000000,400.000000) scale(0.100000,-0.100000)"
fill="#000000" stroke="none">
<path d="M0 2000 l0 -2000 1032 2 1032 3 6 25 c6 24 6 24 15 5 4 -11 7 -23 7
-27 -3 -12 1266 -10 1273 2 3 5 16 15 28 21 22 12 22 12 3 -10 -19 -21 -19
-21 14 -21 26 0 31 3 26 18 -6 16 -5 16 8 0 7 -10 23 -18 34 -18 19 0 20 3 12
25 -12 33 3 33 18 0 6 -14 17 -25 24 -25 9 0 8 3 -2 10 -12 8 -9 10 12 10 15
0 30 -4 33 -10 4 -6 87 -10 216 -10 l209 0 0 2000 0 2000 -1090 0 -1091 0 -10
-24 c-9 -18 -7 -29 6 -49 18 -28 13 -67 -10 -67 -7 0 -15 -6 -18 -13 -8 -21
18 -47 47 -47 30 0 29 0 16 -35 -5 -14 -14 -23 -20 -20 -5 3 -10 1 -10 -4 0
-6 7 -11 15 -11 18 0 18 -1 2 -31 -25 -48 -28 -51 -43 -38 -10 8 -11 16 -4 29
13 23 -8 78 -22 58 -4 -7 -8 -8 -9 -3 0 6 -2 19 -4 30 -2 11 1 22 6 26 7 4 5
12 -5 22 -18 18 -22 77 -5 77 7 0 9 10 5 26 -5 17 -3 23 4 19 5 -3 10 1 10 9
0 9 -4 16 -10 16 -5 0 -10 7 -10 15 0 12 -115 14 -875 15 l-875 0 0 -2000z
m1635 1970 c4 -12 1 -27 -5 -35 -10 -12 -9 -15 4 -15 12 0 16 -10 16 -42 0
-31 3 -39 11 -31 8 8 16 7 30 -5 25 -22 24 -32 -5 -32 -29 0 -60 43 -51 70 4
14 -1 23 -21 33 -17 9 -23 17 -15 21 6 4 11 18 11 32 0 29 16 32 25 4z m-358
-12 c-3 -8 -6 -5 -6 6 -1 11 2 17 5 13 3 -3 4 -12 1 -19z m603 -12 c0 -3 -4
-8 -10 -11 -5 -3 -10 -1 -10 4 0 6 5 11 10 11 6 0 10 -2 10 -4z m-318 -31 c18
-24 18 -24 -12 -23 -16 1 -31 7 -34 14 -3 8 0 11 10 7 10 -4 12 0 8 11 -9 24
9 19 28 -9z m-229 8 c-7 -2 -21 -2 -30 0 -10 3 -4 5 12 5 17 0 24 -2 18 -5z
m547 -67 c0 -17 -2 -18 -10 -6 -6 10 -10 11 -10 3 0 -7 -7 -13 -15 -13 -8 0
-15 -7 -15 -15 0 -8 -4 -15 -10 -15 -12 0 -12 3 -4 24 3 9 12 16 20 16 9 0 14
12 14 33 1 30 1 31 15 13 8 -11 15 -29 15 -40z m-175 24 c3 -5 1 -10 -4 -10
-6 0 -11 5 -11 10 0 6 2 10 4 10 3 0 8 -4 11 -10z m-405 -9 c0 -6 -4 -13 -10
-16 -5 -3 -10 1 -10 9 0 9 5 16 10 16 6 0 10 -4 10 -9z m250 -11 c0 -5 -7 -10
-15 -10 -8 0 -15 5 -15 10 0 6 7 10 15 10 8 0 15 -4 15 -10z m1020 -15 c0 -8
-4 -15 -10 -15 -5 0 -10 7 -10 15 0 8 5 15 10 15 6 0 10 -7 10 -15z m-1028
-17 c5 -45 19 -88 29 -88 13 0 11 -37 -2 -46 -6 -3 -15 -2 -20 3 -14 14 -37
113 -27 119 4 3 6 10 3 15 -4 5 -1 9 4 9 6 0 12 -6 13 -12z m368 -9 c0 -5 -7
-9 -15 -9 -15 0 -20 12 -9 23 8 8 24 -1 24 -14z m-600 -3 c0 -7 -6 -19 -14
-25 -19 -16 -32 5 -16 24 16 19 30 19 30 1z m370 -49 c0 -18 5 -38 12 -45 6
-6 8 -15 4 -19 -10 -11 -26 17 -26 48 0 14 -5 30 -12 37 -9 9 -8 12 5 12 13 0
17 -9 17 -33z m-430 -37 c0 -16 -4 -30 -10 -30 -5 0 -10 14 -10 30 0 17 5 30
10 30 6 0 10 -13 10 -30z m525 -30 c3 -5 1 -10 -4 -10 -6 0 -11 5 -11 10 0 6
2 10 4 10 3 0 8 -4 11 -10z m-172 -57 c-6 -16 -8 -15 -13 7 -8 31 0 48 11 27
5 -8 6 -24 2 -34z m152 29 c-3 -3 -11 0 -18 7 -9 10 -8 11 6 5 10 -3 15 -9 12
-12z m205 14 c0 -3 -4 -8 -10 -11 -5 -3 -10 -1 -10 4 0 6 5 11 10 11 6 0 10
-2 10 -4z m-196 -41 c3 -9 0 -15 -9 -15 -8 0 -15 7 -15 15 0 8 4 15 9 15 5 0
11 -7 15 -15z m90 6 c4 -5 3 -17 0 -26 -5 -13 -8 -14 -15 -3 -5 7 -9 19 -9 26
0 14 16 16 24 3z m-543 -48 c-9 -16 -10 -15 -11 8 0 14 3 29 8 33 12 12 14
-22 3 -41z m279 -45 c0 -23 -3 -39 -6 -35 -9 9 -10 86 -1 80 4 -2 7 -23 7 -45z
m29 19 c0 -21 -1 -21 -9 -2 -12 28 -12 37 0 30 6 -3 10 -16 9 -28z m189 -5 c6
-18 -15 -14 -22 4 -4 10 -1 14 6 12 6 -2 14 -10 16 -16z m-38 -24 c0 -5 -7 -8
-15 -8 -9 0 -15 -9 -15 -22 0 -17 -3 -19 -9 -9 -10 16 -2 53 10 45 5 -3 9 3 9
13 0 15 2 16 10 3 5 -8 10 -18 10 -22z m-430 -4 c0 -8 -4 -12 -10 -9 -5 3 -10
10 -10 16 0 5 5 9 10 9 6 0 10 -7 10 -16z m175 6 c-3 -5 -10 -10 -16 -10 -5 0
-9 5 -9 10 0 6 7 10 16 10 8 0 12 -4 9 -10z m112 -22 c-3 -8 -6 -5 -6 6 -1 11
2 17 5 13 3 -3 4 -12 1 -19z m271 -6 c2 -7 -3 -12 -12 -12 -9 0 -16 7 -16 16
0 17 22 14 28 -4z m-389 -25 c12 -15 12 -17 -3 -11 -9 3 -16 13 -16 22 0 8 1
13 3 11 1 -2 9 -12 16 -22z m-169 -1 c0 -2 -8 -10 -17 -17 -16 -13 -17 -12 -4
4 13 16 21 21 21 13z m540 -16 c0 -5 -4 -10 -10 -10 -5 0 -10 5 -10 10 0 6 5
10 10 10 6 0 10 -4 10 -10z m-45 -30 c3 -5 1 -10 -4 -10 -6 0 -11 5 -11 10 0
6 2 10 4 10 3 0 8 -4 11 -10z m-498 -52 c-3 -8 -6 -5 -6 6 -1 11 2 17 5 13 3
-3 4 -12 1 -19z m639 -145 c-1 -16 7 -44 18 -63 11 -19 16 -32 12 -28 -10 8
-48 -30 -41 -41 2 -5 -1 -11 -9 -14 -7 -3 -16 -15 -19 -27 -5 -21 -3 -22 34
-16 27 4 38 3 34 -4 -3 -5 -20 -10 -36 -10 l-30 0 17 -31 c11 -23 21 -30 35
-26 36 10 12 -30 -32 -54 -11 -6 -19 -15 -16 -22 7 -22 -30 -45 -72 -43 -39 1
-41 2 -41 33 0 42 -20 43 -62 3 -17 -16 -34 -30 -38 -30 -12 0 -50 -59 -41
-64 10 -7 63 40 59 51 -2 5 8 10 22 12 24 3 25 3 7 -17 -12 -13 -15 -22 -8
-27 6 -3 11 -21 11 -38 0 -39 9 -53 35 -59 12 -2 19 -10 17 -20 -1 -9 7 -18
19 -21 34 -9 19 -40 -26 -53 -22 -7 -32 -13 -22 -13 9 -1 17 -4 17 -8 0 -3 -8
-15 -17 -26 -13 -15 -15 -21 -5 -24 17 -7 15 -23 -4 -23 -9 0 -14 -6 -11 -13
3 -7 -1 -21 -8 -31 -8 -10 -11 -24 -9 -31 3 -7 -2 -36 -12 -64 -14 -44 -20
-51 -43 -52 -23 0 -24 -1 -6 -8 19 -8 19 -8 -2 -15 -13 -4 -23 -14 -23 -22 0
-8 -4 -14 -10 -14 -5 0 -10 -7 -10 -16 0 -9 -6 -14 -12 -11 -7 2 -18 -3 -24
-11 -16 -22 -44 -7 -44 22 0 14 5 28 10 31 12 8 13 42 1 49 -5 4 -7 -2 -4 -13
5 -20 -25 -63 -39 -55 -4 3 -8 0 -8 -7 0 -7 -3 -9 -7 -6 -3 4 -12 2 -19 -3
-14 -13 -88 -15 -127 -5 -21 6 -35 2 -62 -19 -33 -25 -49 -24 -23 2 6 6 9 14
6 18 -7 6 -113 -60 -123 -76 -8 -13 83 -38 164 -44 98 -8 142 5 184 54 34 40
64 54 53 24 -3 -9 -6 -21 -6 -27 0 -7 -14 -27 -31 -45 -18 -19 -28 -39 -25
-48 8 -20 -15 -66 -30 -60 -17 6 -10 -54 7 -65 11 -6 8 -9 -8 -9 -14 0 -23 -6
-23 -16 0 -10 -6 -14 -14 -11 -10 4 -12 -3 -9 -31 3 -20 10 -46 16 -57 10 -20
10 -20 -12 -1 -11 11 -21 14 -21 8 0 -6 5 -14 10 -17 6 -4 8 -11 5 -16 -4 -5
3 -9 13 -9 11 0 22 -6 25 -13 4 -10 -2 -13 -20 -9 -24 5 -25 3 -18 -29 9 -40
6 -36 28 -41 20 -3 57 56 113 182 15 36 32 67 36 68 4 2 8 12 8 22 0 27 19 34
39 16 10 -9 25 -16 32 -14 9 2 13 -4 11 -14 -2 -10 1 -18 6 -18 5 0 9 9 8 19
-1 23 -40 63 -52 53 -4 -4 -4 -1 1 7 4 8 2 16 -5 21 -18 11 -5 40 17 40 13 0
15 -2 5 -8 -20 -13 -4 -40 39 -64 21 -11 35 -26 32 -31 -3 -6 -1 -7 5 -3 6 3
22 2 36 -4 14 -5 27 -6 30 -1 6 8 -24 37 -38 36 -5 0 -10 9 -12 20 -2 11 -8
21 -13 23 -23 8 -10 24 14 18 19 -5 25 -2 25 9 0 22 27 30 47 14 11 -9 8 0 -7
21 -13 19 -28 37 -32 38 -5 2 -6 7 -3 12 3 4 7 38 10 75 3 37 11 79 19 93 8
15 28 61 44 102 l30 75 44 -2 c24 -2 36 1 28 5 -40 19 -60 39 -60 59 0 18 6
23 25 23 30 0 32 14 4 33 -14 11 -17 17 -9 22 9 6 9 10 -1 17 -10 6 -7 7 9 3
13 -4 22 -2 22 5 0 6 4 8 10 5 5 -3 7 0 4 9 -6 17 28 39 42 27 5 -4 29 -13 54
-20 25 -8 57 -18 72 -23 15 -6 43 -7 63 -4 19 4 35 5 35 2 0 -12 -66 -36 -84
-30 -21 6 -21 6 -1 -11 20 -16 20 -16 -3 -12 -14 3 -22 1 -20 -5 5 -15 62 -20
95 -7 22 8 25 8 16 -2 -10 -10 -9 -15 5 -26 15 -12 15 -13 -7 -11 -29 4 -40
-19 -14 -29 10 -3 21 -11 25 -17 4 -6 12 -5 22 3 10 9 16 10 16 3 0 -17 -58
-56 -82 -57 -12 0 -22 -7 -24 -17 -2 -14 1 -16 16 -8 22 12 34 1 19 -17 -9
-11 -1 -13 45 -13 31 0 56 -3 56 -7 -1 -5 -9 -18 -20 -31 -16 -19 -23 -21 -39
-13 -11 6 -30 11 -43 10 -21 0 -21 -1 -4 -8 15 -6 17 -9 7 -16 -10 -5 -2 -13
25 -26 22 -10 35 -19 29 -19 -5 0 -3 -5 5 -11 23 -16 -50 0 -77 17 -27 17 -37
18 -27 2 5 -8 2 -9 -9 -5 -21 8 -22 -2 -1 -31 15 -22 52 -32 38 -10 -5 7 -3 8
5 4 9 -6 9 -12 -2 -24 -8 -10 -13 -23 -11 -30 1 -7 0 -8 -2 -3 -3 6 -12 7 -20
4 -8 -3 -14 -1 -14 4 0 5 -7 10 -15 10 -22 0 -19 -8 21 -52 33 -38 34 -40 14
-43 -28 -5 -39 6 -20 18 13 8 12 10 -2 10 -10 0 -18 -7 -18 -16 0 -9 8 -23 18
-31 9 -8 11 -11 3 -7 -11 5 -13 2 -8 -15 5 -22 5 -22 -14 -5 -10 9 -19 12 -19
6 0 -6 5 -14 10 -17 13 -8 13 -25 0 -25 -5 0 -15 19 -22 43 -10 34 -13 38 -16
18 -2 -13 1 -28 7 -34 18 -18 13 -27 -14 -27 -14 0 -25 4 -25 8 0 5 -11 14
-25 20 -35 16 -30 1 7 -23 37 -23 52 -53 22 -41 -15 6 -16 5 -7 -5 10 -10 9
-16 -4 -31 -14 -16 -14 -22 -2 -46 7 -15 15 -30 17 -34 2 -5 0 -8 -6 -8 -5 0
-21 17 -36 38 -23 30 -26 32 -21 12 7 -25 31 -77 62 -134 11 -20 18 -25 23
-16 5 7 6 20 2 28 -3 10 -1 13 6 8 7 -4 12 -2 12 4 0 6 -10 8 -24 4 -19 -4
-24 -1 -28 20 -6 29 6 35 17 9 6 -17 7 -17 16 0 8 14 14 16 24 7 8 -7 20 -10
27 -7 7 3 -2 12 -22 20 -19 9 -33 17 -30 17 29 7 40 7 40 -1 0 -17 20 -9 21 9
0 14 2 14 8 -3 5 -11 6 -32 4 -47 -3 -20 0 -28 10 -28 8 0 20 -7 28 -16 7 -9
78 -61 158 -116 80 -55 171 -120 202 -144 53 -39 79 -50 104 -44 9 3 98 7 257
12 62 2 87 -14 88 -56 0 -15 -2 -16 -15 -6 -12 10 -19 10 -27 2 -8 -8 -4 -13
16 -18 20 -5 32 -1 46 14 10 11 16 23 12 26 -3 4 -7 19 -8 35 -2 26 1 28 29
27 17 -1 32 -7 35 -14 5 -17 22 -15 22 3 0 8 -6 15 -12 16 -10 0 -10 2 0 6 7
3 22 -3 33 -13 10 -9 22 -14 26 -10 5 4 0 12 -10 17 -21 12 -23 31 -3 23 8 -3
23 -1 33 5 14 7 23 5 41 -12 13 -12 23 -17 22 -12 -5 21 1 29 10 15 9 -13 11
-13 19 -1 8 12 12 12 26 -2 9 -10 21 -17 26 -17 5 0 7 -11 3 -25 -5 -20 -3
-24 9 -19 9 3 21 -4 31 -17 19 -28 11 -43 -14 -27 -10 7 -16 16 -13 22 3 5 1
6 -5 2 -6 -4 -32 0 -57 9 -54 18 -55 18 -55 5 0 -5 7 -10 15 -10 8 0 15 -4 15
-9 0 -5 3 -17 7 -27 4 -11 3 -15 -4 -11 -23 14 -8 -53 16 -69 16 -11 20 -19
12 -27 -7 -7 -5 -14 6 -23 15 -10 15 -14 4 -28 -9 -11 -10 -16 -2 -16 6 0 11
5 11 12 0 9 3 9 12 0 7 -7 20 -12 29 -12 12 0 20 -11 24 -32 4 -18 12 -40 18
-48 7 -8 2 -6 -11 4 -25 22 -33 18 -36 -17 -1 -27 -16 -26 -17 1 0 14 -2 13
-9 -3 -5 -13 -3 -28 6 -42 13 -20 13 -23 -1 -23 -8 0 -15 5 -15 10 0 6 -5 10
-10 10 -13 0 -1 -52 14 -62 6 -5 30 -6 54 -3 25 3 42 0 42 -6 0 -5 10 -1 22
11 12 11 28 20 35 20 17 0 81 57 88 80 7 21 90 76 130 86 31 8 59 -23 74 -83
17 -63 14 -70 -26 -83 -21 -7 -100 -41 -176 -77 -110 -52 -149 -66 -197 -69
-48 -4 -60 -2 -60 10 0 8 -6 17 -12 19 -10 4 -9 8 2 16 10 7 11 11 3 11 -7 0
-13 7 -13 16 0 10 -5 14 -15 10 -9 -3 -15 -1 -14 7 3 25 -1 35 -17 41 -13 5
-14 3 -7 -6 14 -17 24 -88 13 -88 -5 0 -10 -12 -12 -27 -2 -21 -9 -29 -27 -31
-18 -3 -22 0 -18 12 3 8 2 18 -3 21 -6 4 -10 -3 -10 -15 0 -15 -5 -20 -17 -18
-15 3 -19 16 -21 73 -3 67 -15 100 -33 89 -5 -3 -9 1 -9 9 0 10 7 13 20 10 25
-7 27 15 3 33 -10 7 -15 16 -11 20 4 4 14 1 23 -6 22 -18 19 4 -3 24 -18 15
-19 15 -30 -9 -15 -32 -16 -82 -2 -90 6 -3 10 -13 10 -21 0 -8 -4 -14 -10 -14
-5 0 -10 5 -10 11 0 6 -9 22 -20 36 -11 14 -20 21 -20 15 0 -6 7 -17 15 -26 8
-8 15 -22 15 -31 0 -9 9 -19 20 -22 22 -6 22 -6 14 -27 -4 -10 -18 -16 -36
-16 -26 0 -30 3 -25 23 2 12 1 33 -3 47 -7 23 -8 23 -9 -8 -1 -21 -5 -31 -12
-27 -6 4 -8 12 -6 19 6 15 -17 36 -30 28 -11 -8 -24 -52 -16 -52 3 0 12 8 20
18 14 16 14 16 8 -2 -3 -11 0 -23 6 -27 7 -4 13 -17 14 -28 1 -11 -2 -18 -7
-15 -4 3 -8 0 -8 -6 0 -21 -38 -62 -45 -49 -4 6 -2 16 4 22 17 17 13 31 -4 17
-13 -11 -15 -8 -15 21 -1 29 -2 31 -11 16 -6 -11 -8 -39 -5 -65 l6 -47 -14 33
c-14 31 -36 44 -36 21 0 -5 -4 -7 -10 -4 -5 3 -10 13 -10 22 0 21 -29 53 -48
53 -10 0 -12 -7 -8 -25 4 -15 2 -25 -4 -25 -6 0 -15 11 -20 25 -5 14 -16 25
-25 25 -17 0 -20 31 -5 46 14 14 21 54 10 54 -5 0 -7 14 -3 30 7 37 -8 39 -24
4 -9 -18 -9 -32 -2 -45 7 -14 6 -17 -4 -13 -8 3 -17 -2 -20 -10 -4 -9 -13 -13
-22 -10 -11 5 -14 2 -9 -10 3 -9 1 -16 -5 -16 -6 0 -11 5 -11 10 0 6 -7 10
-16 10 -8 0 -12 5 -9 10 4 6 11 8 16 5 5 -4 9 1 9 9 0 10 -9 16 -24 16 -25 0
-82 39 -57 40 11 0 11 3 1 15 -7 8 -18 15 -24 14 -7 0 -6 -2 2 -6 6 -2 12 -9
12 -15 0 -6 -8 -7 -17 -4 -14 6 -14 4 2 -16 11 -13 29 -31 40 -40 17 -15 18
-19 5 -28 -11 -7 -16 -5 -19 8 -2 9 -14 27 -28 40 -16 15 -22 29 -18 42 4 13
0 22 -15 30 -12 6 -24 9 -28 6 -3 -3 0 -6 6 -6 7 0 12 -7 12 -15 0 -22 -17
-18 -23 5 -3 12 1 26 8 33 11 10 9 17 -12 39 -22 23 -24 30 -13 43 10 12 9 20
-4 40 -9 14 -21 23 -27 19 -7 -4 -5 -12 5 -23 24 -27 21 -48 -4 -26 -19 17
-20 17 -20 -1 0 -11 16 -29 35 -42 35 -22 49 -49 19 -38 -8 3 -12 2 -9 -4 10
-16 -11 -12 -25 5 -16 19 -34 20 -27 1 4 -10 0 -12 -14 -9 -21 6 -27 -13 -6
-20 6 -2 9 -8 5 -12 -5 -5 -16 -1 -25 7 -26 23 -59 27 -55 7 3 -22 -27 -33
-34 -14 -9 24 -24 17 -24 -10 0 -14 -4 -25 -10 -25 -5 0 -10 7 -10 16 0 13 -5
12 -26 -5 -15 -12 -32 -21 -40 -21 -7 0 -14 -3 -16 -7 -3 -8 -98 -43 -115 -43
-5 0 -9 9 -10 20 -1 11 2 20 8 20 14 0 44 34 45 52 1 11 -4 15 -15 12 -9 -3
-5 2 9 10 14 8 31 15 38 16 15 0 182 106 182 115 0 9 -52 -15 -84 -40 -63 -48
-146 -77 -223 -79 -62 -1 -74 2 -93 22 -11 12 -25 22 -30 22 -6 0 -10 3 -10 8
0 4 39 7 88 8 73 0 99 5 157 29 39 16 75 33 80 37 6 4 39 23 75 42 36 18 66
41 68 50 3 12 -24 2 -103 -39 -101 -53 -166 -75 -261 -90 -35 -5 -45 -3 -62
15 -11 11 -32 25 -48 29 -16 4 -29 12 -29 18 0 6 -3 15 -7 19 -5 4 -8 2 -8 -4
0 -21 -44 -13 -73 13 -15 14 -27 29 -27 34 0 18 15 20 32 4 27 -24 22 -6 -7
25 -14 15 -25 31 -25 37 0 5 -14 23 -31 40 -31 30 -31 30 -25 5 12 -58 16
-105 6 -85 -5 11 -9 29 -9 41 -1 11 -8 29 -17 40 -15 18 -15 18 -9 -8 7 -34
-2 -37 -16 -5 -7 18 -8 15 -4 -16 4 -27 3 -37 -7 -35 -8 2 -15 -12 -19 -37 -7
-43 -9 -36 -12 33 -1 23 2 43 8 45 5 2 -1 6 -13 9 -17 5 -23 1 -28 -18 -8 -32
-20 -30 -27 4 -4 15 -11 33 -16 41 -11 16 -31 6 -31 -16 0 -8 -10 -27 -22 -41
-14 -18 -19 -21 -14 -8 4 13 0 23 -14 33 -13 9 -19 21 -16 30 5 12 1 14 -14
10 -13 -3 -20 0 -20 9 0 8 -4 14 -10 14 -5 0 -10 -5 -10 -11 0 -11 -16 -9 -54
7 -14 5 -17 4 -12 -4 4 -7 3 -12 -3 -12 -5 0 -13 5 -16 10 -3 5 -11 10 -16 10
-6 0 -3 -7 5 -16 21 -20 20 -25 -1 -17 -15 5 -16 3 -5 -8 16 -17 16 -35 -1
-21 -7 6 -31 8 -56 5 l-43 -6 29 -24 28 -24 -32 16 c-42 20 -43 20 -39 -14 3
-24 0 -29 -15 -28 -11 1 -19 6 -19 11 0 5 -3 6 -7 2 -4 -4 6 -18 22 -31 17
-13 24 -24 18 -25 -7 0 -13 5 -13 10 0 6 -12 10 -26 10 -17 0 -28 -6 -31 -20
-6 -22 -18 -26 -28 -10 -3 6 -13 10 -21 10 -9 0 -12 -5 -8 -11 5 -8 -3 -10
-24 -7 -22 3 -29 1 -25 -9 3 -7 0 -13 -7 -13 -6 0 -8 -4 -5 -10 3 -6 -1 -7 -9
-4 -9 3 -16 1 -16 -5 0 -16 -57 -13 -63 3 -3 8 -16 20 -29 27 l-23 12 23 -25
c24 -27 29 -48 10 -48 -9 0 -9 -3 0 -12 18 -18 14 -30 -8 -23 -13 4 -20 2 -20
-6 0 -8 -7 -5 -20 6 -11 10 -20 24 -20 30 0 15 -32 15 -42 1 -4 -6 1 -15 9
-21 17 -13 10 -35 -10 -35 -7 1 -25 29 -41 63 -19 41 -31 56 -33 44 -3 -9 -9
-15 -14 -12 -5 4 -9 1 -9 -5 0 -7 6 -10 14 -7 7 3 18 1 23 -4 12 -12 4 -61 -9
-53 -5 3 -6 15 -3 27 5 17 4 19 -4 7 -6 -8 -11 -11 -11 -7 0 5 -4 5 -10 2 -6
-4 -4 -17 5 -35 20 -39 19 -43 -11 -36 -15 4 -32 2 -41 -6 -13 -10 -15 -9 -11
7 2 14 10 19 26 17 16 -2 22 2 22 17 0 11 -5 23 -11 27 -6 3 -9 15 -6 25 6 22
1 24 -17 7 -7 -7 -11 -23 -9 -37 2 -18 -1 -14 -8 9 -13 40 -23 25 -17 -26 4
-31 2 -34 -23 -34 -15 0 -31 5 -35 11 -3 6 -32 27 -63 46 -82 52 -129 100
-162 168 -41 84 -36 98 13 42 45 -50 58 -57 58 -32 0 8 8 15 18 15 20 0 62
-61 62 -90 0 -11 5 -20 10 -20 6 0 10 4 10 9 0 6 12 4 27 -4 15 -8 31 -11 36
-8 5 3 13 -1 18 -8 7 -11 9 -10 9 5 0 18 1 18 18 3 21 -19 42 -22 42 -7 0 6
-3 9 -7 8 -5 -2 -9 2 -10 7 -1 6 5 9 13 7 10 -2 15 3 14 15 -4 31 0 36 15 23
8 -7 12 -16 9 -21 -3 -5 -1 -9 5 -9 6 0 7 -8 4 -17 -6 -17 -6 -17 10 -1 17 16
14 48 -4 48 -5 0 -9 10 -9 23 1 22 1 21 23 -5 12 -15 30 -37 39 -50 15 -20 17
-20 11 -3 -3 11 -14 30 -24 43 -17 22 -15 61 4 73 6 4 5 14 -2 25 -6 11 -11
13 -11 7 0 -7 -4 -13 -9 -13 -5 0 -7 9 -4 21 4 14 12 19 24 16 24 -6 25 9 2
22 -14 7 -15 12 -5 24 10 12 7 17 -18 27 -16 7 -37 9 -46 6 -9 -4 -23 -1 -32
6 -13 11 -15 9 -9 -20 l7 -33 -35 34 c-36 35 -51 73 -19 46 11 -9 17 -10 23
-1 4 6 25 16 46 21 24 5 31 9 18 10 -35 2 -30 37 7 50 17 5 30 15 30 20 0 6
11 11 24 11 13 0 29 7 36 15 10 12 7 13 -19 5 -17 -5 -31 -5 -31 0 0 9 30 24
43 22 4 -1 21 11 38 28 l31 29 -31 -2 c-26 -2 -31 -6 -32 -27 0 -14 -3 -19 -6
-12 -4 10 -8 10 -19 1 -29 -24 -13 7 23 43 23 24 32 38 22 38 -8 0 -20 -5 -27
-12 -16 -16 -28 -2 -14 15 9 10 8 14 -3 14 -8 0 -15 -5 -15 -10 0 -5 -8 -16
-17 -24 -14 -11 -15 -13 -3 -11 16 3 20 -2 20 -23 0 -7 -11 0 -25 15 -14 15
-25 33 -25 41 0 19 17 28 24 13 4 -7 4 2 1 21 -4 26 -2 32 10 27 9 -3 15 1 15
10 0 10 -6 14 -15 10 -9 -3 -15 0 -15 9 0 8 6 15 13 16 9 0 9 2 0 6 -7 2 -13
14 -13 26 1 20 2 20 11 4 6 -9 15 -15 20 -11 6 4 6 10 -1 19 -6 7 -10 17 -9
21 4 22 -2 44 -12 44 -5 0 -7 -4 -4 -10 3 -5 2 -10 -3 -10 -13 0 -23 28 -13
34 4 3 22 0 39 -6 28 -11 33 -10 47 7 8 11 15 16 15 12 0 -4 9 -3 20 3 12 6
17 16 13 26 -8 22 29 184 43 184 13 0 7 -37 -7 -46 -5 -3 -9 -32 -9 -65 l0
-59 22 22 c14 14 18 23 10 26 -7 2 -11 13 -11 25 1 20 2 20 6 2 5 -17 7 -16
19 10 l14 30 -5 -27 c-3 -16 -1 -28 5 -28 5 0 10 12 10 28 0 31 39 119 56 126
6 2 22 -19 34 -47 13 -29 26 -54 29 -57 3 -3 19 -23 36 -45 37 -50 50 -60 101
-81 l41 -16 80 59 c65 48 79 63 79 86 1 15 -3 27 -8 27 -4 0 -8 -7 -8 -15 0
-14 -3 -13 -25 1 -31 20 -28 39 6 40 54 3 59 4 59 24 0 11 5 20 10 20 6 0 10
9 10 19 0 22 16 37 22 20 4 -12 38 -1 38 12 0 37 -198 188 -345 262 -84 43
-138 54 -170 37 -17 -9 -28 -9 -41 -1 -11 6 -13 11 -6 11 6 0 12 11 12 24 l0
24 58 -14 c31 -8 80 -24 109 -35 l52 -21 33 31 c18 17 40 33 49 36 9 3 19 14
22 25 4 16 -2 14 -34 -12 -21 -17 -42 -28 -46 -25 -3 4 -15 -5 -25 -20 -10
-16 -18 -26 -19 -23 -5 29 -4 48 2 44 4 -2 10 0 14 6 3 5 0 10 -7 10 -9 0 -9
3 2 10 8 5 20 10 25 10 6 0 3 -5 -5 -10 -13 -8 -13 -10 2 -10 9 0 20 5 23 10
3 6 14 10 24 10 11 0 21 9 24 22 9 34 -3 41 -29 17 -23 -22 -25 -22 -38 -4 -8
11 -18 15 -25 10 -10 -6 -11 -3 -1 16 l13 23 8 -22 c11 -28 15 -28 44 6 13 15
25 22 25 15 0 -7 7 -10 15 -7 11 5 13 2 9 -10 -8 -21 15 -21 30 0 11 14 13 14
25 0 11 -14 11 -16 -3 -16 -9 0 -16 -4 -16 -9 0 -5 9 -7 20 -4 23 6 26 -7 8
-25 -10 -10 -10 -15 2 -23 11 -8 9 -9 -10 -4 -20 6 -23 5 -12 -6 6 -7 12 -21
12 -31 0 -11 5 -15 14 -12 11 4 13 0 9 -17 -4 -15 -3 -20 5 -15 17 10 3 -25
-20 -50 -17 -19 -17 -22 -3 -28 9 -3 14 -2 11 2 -2 4 8 21 22 37 15 17 24 26
20 21 -16 -21 -7 -28 12 -11 26 23 27 57 3 48 -15 -5 -16 -3 -5 8 17 18 15 30
-3 23 -9 -4 -15 0 -15 8 0 10 10 13 30 12 17 -1 30 2 30 7 0 5 7 9 16 9 8 0
13 4 10 8 -2 4 4 9 15 9 15 1 19 -5 20 -30 l0 -32 16 33 c9 17 20 32 25 32 4
0 5 7 2 15 -4 10 0 15 11 15 12 0 15 -5 11 -16 -3 -9 -6 -22 -6 -30 0 -9 -4
-13 -9 -9 -11 6 -36 -33 -27 -43 3 -3 6 -1 6 4 0 5 10 10 22 11 30 3 65 41 73
82 5 23 4 31 -4 27 -6 -4 -11 -2 -11 3 0 6 4 11 10 11 5 0 15 10 21 23 12 22
12 22 -9 4 -20 -18 -20 -18 -15 35 4 52 9 66 18 57 4 -5 12 -39 14 -61 1 -5 6
-8 12 -8 8 0 8 5 -1 15 -7 8 -8 15 -3 15 6 0 15 10 21 23 l11 22 0 -22 c1 -13
6 -23 11 -23 6 0 10 -10 10 -22 1 -21 2 -21 13 -7 7 9 21 18 31 20 12 3 31 32
55 85 41 91 71 136 78 117 3 -7 11 -13 19 -13 22 0 64 30 64 46 0 10 12 14 39
14 35 0 38 -2 37 -27z m1021 -100 c-3 -10 -5 -2 -5 17 0 19 2 27 5 18 2 -10 2
-26 0 -35z m-1692 16 c-10 -15 -25 -10 -19 6 4 8 10 12 15 9 5 -3 7 -10 4 -15z
m-120 3 c7 -4 2 -16 -12 -31 -24 -25 -27 -22 -17 17 7 23 13 26 29 14z m135
-27 c-10 -12 -7 -14 23 -10 25 3 39 0 48 -12 10 -12 10 -15 2 -9 -8 4 -13 2
-13 -4 0 -6 -4 -9 -8 -6 -5 3 -21 -3 -36 -14 -21 -13 -36 -16 -56 -10 -17 5
-32 4 -39 -3 -6 -6 -14 -8 -17 -4 -4 4 10 14 30 22 20 9 40 23 43 33 4 9 11
20 17 24 17 12 19 9 6 -7z m115 -5 c7 -12 -2 -12 -30 0 -19 8 -19 9 2 9 12 1
25 -3 28 -9z m-160 -10 c3 -5 -1 -10 -10 -10 -9 0 -13 5 -10 10 3 6 8 10 10
10 2 0 7 -4 10 -10z m-49 -19 c-10 -11 -25 -17 -33 -14 -17 7 -6 19 22 26 11
3 22 5 24 6 2 0 -4 -8 -13 -18z m74 -66 c-7 -8 -16 -13 -20 -10 -5 3 -10 0
-12 -6 -2 -6 -13 -9 -23 -7 -17 3 -16 6 10 20 41 22 62 23 45 3z m-80 -24 c0
-16 -28 -32 -66 -38 -28 -5 -35 -3 -30 6 5 7 13 10 20 8 7 -3 23 4 37 14 26
20 39 24 39 10z m-100 -11 c0 -6 -10 -21 -22 -33 -13 -13 -35 -38 -50 -56 -17
-20 -28 -27 -28 -17 0 8 5 18 10 21 6 4 9 14 8 23 -2 9 5 18 16 20 11 2 28 15
39 28 20 26 27 30 27 14z m355 -34 c0 -13 -4 -24 -10 -23 -5 1 -10 -7 -11 -18
-2 -36 -4 -39 -14 -29 -12 12 18 94 34 94 1 0 1 -11 1 -24z m54 -19 c1 -5 -3
-5 -9 -2 -5 3 -10 16 -9 28 0 21 1 21 9 2 5 -11 9 -24 9 -28z m-521 19 c-7 -8
-15 -12 -17 -11 -5 6 10 25 20 25 5 0 4 -6 -3 -14z m1102 -1 c-14 -7 -27 -11
-30 -9 -6 7 22 24 40 23 9 0 5 -6 -10 -14z m5 -35 c-3 -5 -12 -7 -20 -3 -21 7
-19 13 6 13 11 0 18 -4 14 -10z m-1147 -26 c-7 -15 -14 -21 -16 -15 -2 7 2 18
8 26 18 22 21 18 8 -11z m1197 16 c-3 -5 -13 -10 -21 -10 -8 0 -14 5 -14 10 0
6 9 10 21 10 11 0 17 -4 14 -10z m-821 -45 c-4 -8 -8 -15 -10 -15 -2 0 -4 7
-4 15 0 8 4 15 10 15 5 0 7 -7 4 -15z m931 5 c-3 -5 -1 -10 4 -10 6 0 11 -5
11 -10 0 -7 -7 -7 -21 1 -12 6 -29 9 -40 6 -10 -3 -26 1 -36 9 -16 12 -12 13
35 14 33 0 51 -4 47 -10z m-755 -10 c0 -5 -5 -10 -11 -10 -5 0 -7 5 -4 10 3 6
8 10 11 10 2 0 4 -4 4 -10z m590 -4 c0 -8 6 -17 13 -19 7 -3 5 -6 -5 -6 -9 -1
-21 5 -25 13 -4 8 -17 16 -28 19 -13 3 -9 5 13 6 21 1 32 -4 32 -13z m-1057
-13 c-3 -7 -9 -10 -14 -7 -14 8 -11 21 5 21 8 0 12 -6 9 -14z m965 -11 c2 -7
-3 -12 -12 -12 -8 0 -20 -8 -25 -17 -13 -23 -14 -12 -1 22 10 26 30 30 38 7z
m187 8 c3 -5 -1 -10 -9 -10 -9 0 -16 5 -16 10 0 6 4 10 9 10 6 0 13 -4 16 -10z
m855 0 c0 -5 -17 -11 -37 -11 l-38 -1 39 -8 c22 -4 46 -16 53 -26 13 -17 11
-20 -14 -31 -15 -7 -23 -12 -18 -13 6 0 55 -7 109 -15 111 -17 139 -34 156
-93 14 -51 -9 -98 -56 -118 -35 -15 -54 -14 -112 2 -21 6 -23 5 -13 -12 6 -10
31 -75 56 -143 53 -148 81 -197 137 -246 41 -35 46 -37 99 -32 108 9 185 73
210 172 l15 63 -32 7 c-40 7 -84 56 -84 93 0 15 9 44 20 65 l21 39 -31 45
c-33 52 -34 56 -20 84 15 28 55 24 107 -12 59 -41 75 -81 81 -201 l5 -96 -42
-81 c-22 -44 -41 -92 -41 -106 0 -50 -113 -129 -204 -141 -32 -5 -55 -1 -89
14 -94 42 -153 135 -226 360 -77 235 -157 412 -185 412 -7 0 -21 9 -31 20 -18
20 -17 20 73 20 55 0 92 -4 92 -10z m-923 -26 c27 6 27 6 6 -6 -21 -13 -20
-14 23 -33 27 -12 42 -25 39 -32 -2 -7 -1 -13 3 -13 4 0 8 -9 9 -19 1 -15 -3
-18 -15 -14 -9 4 -19 9 -22 12 -3 3 -14 11 -25 18 -11 6 -19 16 -17 22 3 17
-28 13 -34 -4 -7 -17 -40 -20 -49 -4 -10 16 -68 0 -87 -24 l-18 -22 0 26 c0
24 29 76 30 52 0 -9 8 -9 29 -2 22 8 28 15 24 27 -5 14 -3 15 8 5 18 -17 32
-16 26 1 -7 18 13 27 30 14 7 -6 25 -7 40 -4z m133 -4 c0 -16 -38 -31 -65 -24
-14 3 -25 11 -25 16 0 6 6 8 13 5 6 -2 21 -1 32 4 28 11 45 11 45 -1z m25 -70
c3 -5 -1 -10 -10 -10 -9 0 -13 5 -10 10 3 6 8 10 10 10 2 0 7 -4 10 -10z
m-1415 -324 c0 -14 -4 -27 -10 -31 -5 -3 -8 7 -7 25 2 36 17 41 17 6z m-362
-54 c2 -7 -5 -12 -15 -11 -12 0 -14 2 -4 6 11 5 11 7 0 15 -12 8 -12 9 0 6 8
-3 17 -10 19 -16z m218 -9 c-10 -10 -19 5 -10 18 6 11 8 11 12 0 2 -7 1 -15
-2 -18z m-36 7 c0 -5 -2 -10 -4 -10 -3 0 -8 5 -11 10 -3 6 -1 10 4 10 6 0 11
-4 11 -10z m18 -81 c-2 -6 -8 -10 -13 -10 -5 0 -11 4 -13 10 -2 6 4 11 13 11
9 0 15 -5 13 -11z m1010 -29 c4 0 13 5 18 10 11 11 44 3 44 -10 0 -4 -12 -11
-26 -14 -30 -8 -64 16 -63 43 0 10 3 8 9 -6 5 -13 13 -23 18 -23z m575 0 c20
-1 20 -2 5 -11 -12 -7 -24 -6 -38 1 -24 13 -27 25 -4 16 9 -3 25 -6 37 -6z
m-1594 -64 c0 -11 -3 -16 -5 -9 -3 7 -11 10 -19 7 -10 -4 -12 0 -8 15 7 26 33
16 32 -13z m731 3 c0 -5 -4 -9 -10 -9 -5 0 -10 7 -10 16 0 8 5 12 10 9 6 -3
10 -10 10 -16z m1331 -22 c-10 -9 -11 -8 -5 6 3 10 9 15 12 12 3 -3 0 -11 -7
-18z m-454 -23 c-9 -10 -38 16 -31 28 4 6 13 4 22 -6 9 -8 13 -19 9 -22z
m-502 -4 c3 -5 1 -10 -4 -10 -6 0 -11 5 -11 10 0 6 2 10 4 10 3 0 8 -4 11 -10z
m-1299 -27 c-7 -7 -26 7 -26 19 0 6 6 6 15 -2 9 -7 13 -15 11 -17z m1264 12
c7 -9 8 -15 2 -15 -5 0 -12 7 -16 15 -3 8 -4 15 -2 15 2 0 9 -7 16 -15z m500
-35 c12 -16 18 -30 14 -30 -8 0 -74 69 -74 77 0 11 41 -21 60 -47z m80 40 c0
-5 -4 -10 -10 -10 -5 0 -10 5 -10 10 0 6 5 10 10 10 6 0 10 -4 10 -10z m-610
-10 c0 -5 -4 -10 -10 -10 -5 0 -10 5 -10 10 0 6 5 10 10 10 6 0 10 -4 10 -10z
m-1156 -53 c7 -6 6 -7 -4 -4 -8 2 -16 14 -17 28 -1 19 -1 20 4 4 3 -11 10 -24
17 -28z m2203 -39 c-3 -8 -6 -5 -6 6 -1 11 2 17 5 13 3 -3 4 -12 1 -19z
m-2238 -32 c-13 -14 -11 -36 4 -36 7 0 18 -13 24 -29 10 -28 9 -29 -11 -22
-11 5 -21 15 -21 23 0 8 -8 22 -17 32 -23 22 -23 37 -2 29 14 -5 16 -2 10 23
-7 27 -7 28 8 9 9 -12 11 -24 5 -29z m1571 19 c11 -13 10 -14 -2 -10 -9 4 -18
-1 -21 -9 -4 -9 -11 -16 -16 -16 -5 0 -4 11 2 25 14 29 20 31 37 10z m-1499
-25 c5 0 9 -4 9 -10 0 -5 -7 -10 -15 -10 -10 0 -15 9 -14 28 1 16 3 20 6 10 2
-10 9 -18 14 -18z m1684 10 c3 -5 2 -10 -4 -10 -5 0 -13 5 -16 10 -3 6 -2 10
4 10 5 0 13 -4 16 -10z m-95 -41 c0 -5 -4 -9 -10 -9 -5 0 -10 7 -10 16 0 8 5
12 10 9 6 -3 10 -10 10 -16z m-100 -4 c14 -16 10 -18 -14 -9 -9 3 -16 10 -16
15 0 14 16 11 30 -6z m145 5 c3 -5 1 -10 -4 -10 -6 0 -11 5 -11 10 0 6 2 10 4
10 3 0 8 -4 11 -10z m455 0 c0 -5 -5 -10 -11 -10 -5 0 -7 5 -4 10 3 6 8 10 11
10 2 0 4 -4 4 -10z m-2105 -9 c3 -5 1 -12 -5 -16 -5 -3 -10 1 -10 9 0 18 6 21
15 7z m1645 -43 c0 -5 -8 0 -18 10 -11 9 -17 21 -14 25 4 8 31 -22 32 -35z
m490 1 c0 -24 -26 -25 -32 -1 -4 12 1 18 13 19 13 1 19 -5 19 -18z m-73 -5
c-3 -3 -12 -4 -19 -1 -8 3 -5 6 6 6 11 1 17 -2 13 -5z m-2039 -90 c-7 -15 -14
-21 -16 -15 -2 7 2 18 8 26 18 22 21 18 8 -11z m-47 -31 c-12 -20 -14 -14 -5
12 4 9 9 14 11 11 3 -2 0 -13 -6 -23z m-15 -49 c-3 -8 -1 -14 4 -14 6 0 10 -4
10 -10 0 -5 -7 -7 -15 -4 -8 4 -15 13 -15 21 0 10 -6 13 -16 9 -14 -5 -15 -4
-5 8 15 18 44 9 37 -10z m-66 -34 c0 -5 -5 -10 -11 -10 -5 0 -7 5 -4 10 3 6 8
10 11 10 2 0 4 -4 4 -10z m2813 -55 c4 -8 2 -17 -3 -20 -6 -4 -10 3 -10 14 0
25 6 27 13 6z m45 -10 c-3 -3 -9 2 -12 12 -6 14 -5 15 5 6 7 -7 10 -15 7 -18z
m-3 -23 c-3 -3 -11 0 -18 7 -9 10 -8 11 6 5 10 -3 15 -9 12 -12z m-529 -21 c0
-11 -5 -17 -13 -14 -10 4 -11 9 -2 19 15 18 15 18 15 -5z m554 -26 c0 -8 5
-15 10 -15 6 0 10 -5 10 -12 0 -6 -9 -3 -20 7 -22 20 -26 35 -10 35 6 0 10 -7
10 -15z m-2927 -9 c3 -7 1 -18 -5 -24 -8 -8 -5 -9 11 -5 12 3 21 1 21 -6 0 -6
-9 -11 -20 -11 -11 0 -20 -4 -20 -10 0 -13 -27 -13 -35 0 -7 11 22 70 34 70 5
0 11 -6 14 -14z m117 -5 c0 -5 -7 -14 -15 -21 -13 -10 -15 -9 -15 9 0 12 6 21
15 21 8 0 15 -4 15 -9z m2458 -10 c3 -8 -1 -12 -9 -9 -7 2 -15 10 -17 17 -3 8
1 12 9 9 7 -2 15 -10 17 -17z m422 -61 c0 -13 -11 -13 -30 0 -12 8 -11 10 8
10 12 0 22 -4 22 -10z m-90 -33 c0 -5 -11 -7 -25 -4 -20 3 -25 1 -23 -12 2 -9
15 -17 31 -19 15 -2 27 -8 27 -14 0 -6 -14 -8 -37 -3 -60 11 -64 16 -47 51 14
30 17 31 45 21 16 -6 29 -15 29 -20z m-2190 3 c6 -11 7 -20 2 -20 -6 0 -12 9
-15 20 -3 11 -3 20 -1 20 2 0 8 -9 14 -20z m2230 -15 c0 5 5 4 11 -2 6 -6 7
-22 3 -39 l-7 -29 -13 35 c-15 43 -17 60 -4 40 5 -8 10 -11 10 -5z m-1690 -29
c0 -5 -7 -3 -15 4 -8 7 -12 17 -9 22 7 10 24 -9 24 -26z m1750 -36 c0 -5 -2
-10 -4 -10 -3 0 -8 5 -11 10 -3 6 -1 10 4 10 6 0 11 -4 11 -10z m-47 -28 c10
5 19 8 20 6 2 -1 8 -18 14 -36 10 -28 9 -33 -1 -29 -8 3 -18 1 -23 -4 -7 -7
-18 3 -34 28 -32 52 -35 61 -13 41 14 -12 24 -14 37 -6z m-1348 -183 c5 -5 -5
-9 -27 -9 -23 0 -38 5 -42 16 -5 13 -1 14 27 9 17 -4 36 -11 42 -16z m299 5
c4 -10 1 -14 -6 -12 -15 5 -23 28 -10 28 5 0 13 -7 16 -16z m113 9 c-4 -3 -2
-12 4 -20 7 -8 8 -13 1 -13 -12 0 -23 26 -15 34 4 3 9 6 11 6 3 0 2 -3 -1 -7z
m-139 -42 c3 -8 -1 -12 -9 -9 -7 2 -15 10 -17 17 -3 8 1 12 9 9 7 -2 15 -10
17 -17z m-1385 -15 c13 -33 19 -136 9 -148 -5 -7 -11 -21 -13 -30 -4 -15 -8
-15 -49 6 -62 31 -64 58 -9 131 43 58 53 64 62 41z m1077 -19 c0 -5 -4 -5 -10
-2 -5 3 -10 14 -10 23 0 15 2 15 10 2 5 -8 10 -19 10 -23z m284 0 c7 -6 6 -7
-4 -4 -8 2 -16 12 -17 23 -2 13 -1 15 4 4 3 -8 11 -19 17 -23z m97 11 c11 -21
11 -22 -4 -9 -10 7 -17 17 -17 22 0 15 9 10 21 -13z m315 -74 c-3 -8 -1 -14 5
-14 6 0 7 -5 4 -11 -5 -6 -13 -3 -22 10 -8 12 -11 26 -8 31 9 15 27 1 21 -16z
m-96 -9 c7 -8 16 -13 20 -10 4 2 5 -7 2 -22 -4 -23 -6 -24 -15 -7 -5 11 -17
27 -25 37 -8 9 -10 17 -5 17 6 0 16 -7 23 -15z m-1813 -37 c-3 -8 -6 -5 -6 6
-1 11 2 17 5 13 3 -3 4 -12 1 -19z m1878 12 c3 -5 1 -10 -4 -10 -6 0 -11 5
-11 10 0 6 2 10 4 10 3 0 8 -4 11 -10z m65 -10 c0 -5 -2 -10 -4 -10 -3 0 -8 5
-11 10 -3 6 -1 10 4 10 6 0 11 -4 11 -10z m520 -21 c0 -5 -4 -9 -10 -9 -5 0
-10 7 -10 16 0 8 5 12 10 9 6 -3 10 -10 10 -16z m-123 -81 c-3 -8 -6 -5 -6 6
-1 11 2 17 5 13 3 -3 4 -12 1 -19z m-2230 6 c-3 -3 -12 -4 -19 -1 -8 3 -5 6 6
6 11 1 17 -2 13 -5z m20 -26 c-3 -8 -6 -5 -6 6 -1 11 2 17 5 13 3 -3 4 -12 1
-19z m437 -16 c-22 -5 -31 7 -14 18 9 6 17 5 22 -3 4 -7 1 -13 -8 -15z m1706
-96 c-15 -15 -32 7 -24 29 7 17 8 17 21 -1 9 -12 10 -21 3 -28z m90 23 c0 -5
-4 -9 -10 -9 -5 0 -10 7 -10 16 0 8 5 12 10 9 6 -3 10 -10 10 -16z m138 4 c16
-16 15 -16 -8 -10 -14 4 -29 7 -35 7 -5 0 -3 5 5 10 19 13 19 13 38 -7z m126
1 c9 -22 -3 -32 -14 -14 -12 19 -12 30 -1 30 5 0 12 -7 15 -16z m-1953 -37
c-10 -9 -11 -8 -5 6 3 10 9 15 12 12 3 -3 0 -11 -7 -18z m1539 13 c0 -5 -4
-10 -10 -10 -5 0 -10 5 -10 10 0 6 5 10 10 10 6 0 10 -4 10 -10z m-1740 -21
c0 -5 -4 -9 -10 -9 -5 0 -10 7 -10 16 0 8 5 12 10 9 6 -3 10 -10 10 -16z
m1906 -14 c0 -14 -4 -25 -8 -25 -10 0 -10 13 -2 34 9 23 12 20 10 -9z m-1564
-7 c-7 -7 -12 -8 -12 -2 0 14 12 26 19 19 2 -3 -1 -11 -7 -17z m-52 2 c0 -5
-2 -10 -4 -10 -3 0 -8 5 -11 10 -3 6 -1 10 4 10 6 0 11 -4 11 -10z m1795 -8
c-3 -3 -11 0 -18 7 -9 10 -8 11 6 5 10 -3 15 -9 12 -12z m-63 -12 c15 0 28 -2
28 -4 0 -2 3 -13 6 -23 6 -17 6 -17 -7 -1 -8 9 -27 18 -43 20 -16 2 -31 10
-34 18 -4 12 -2 13 9 3 7 -7 26 -13 41 -13z m-292 -5 c7 -8 8 -15 2 -15 -5 0
-15 7 -22 15 -7 8 -8 15 -2 15 5 0 15 -7 22 -15z m64 -6 c19 -18 0 -16 -29 3
-27 18 -28 19 -5 13 14 -4 29 -11 34 -16z m-1379 -9 c3 -5 1 -10 -4 -10 -6 0
-11 5 -11 10 0 6 2 10 4 10 3 0 8 -4 11 -10z m43 -19 c-7 -12 -16 -21 -21 -21
-4 0 0 11 10 24 22 29 30 27 11 -3z m1432 25 c0 -3 -4 -8 -10 -11 -5 -3 -10
-1 -10 4 0 6 5 11 10 11 6 0 10 -2 10 -4z m174 -60 c-3 -9 -13 -12 -27 -8 -21
6 -21 6 3 13 14 4 26 7 27 8 1 1 0 -5 -3 -13z m-284 -16 c0 -10 6 -23 13 -27
8 -4 17 -16 20 -27 4 -11 13 -16 22 -12 8 3 15 0 15 -5 0 -6 -8 -9 -19 -6 -14
3 -17 0 -14 -14 3 -11 1 -19 -5 -19 -6 0 -16 -17 -23 -37 l-13 -38 -7 45 c-7
49 -3 63 11 40 16 -26 25 0 9 28 -20 36 -52 43 -47 10 2 -17 -2 -24 -18 -26
-25 -4 -41 26 -19 34 8 4 15 12 15 20 0 8 6 13 13 12 6 -2 12 4 12 12 0 15 13
30 28 30 4 0 7 -9 7 -20z m367 -2 c-3 -8 -6 -5 -6 6 -1 11 2 17 5 13 3 -3 4
-12 1 -19z m-1126 -15 c-12 -20 -14 -14 -5 12 4 9 9 14 11 11 3 -2 0 -13 -6
-23z m828 1 c2 -2 2 -7 -2 -10 -8 -9 -47 6 -47 17 0 9 37 3 49 -7z m91 -4 c0
-5 -4 -10 -10 -10 -5 0 -10 5 -10 10 0 6 5 10 10 10 6 0 10 -4 10 -10z m-760
-25 c-7 -8 -17 -15 -23 -15 -6 0 -2 7 9 15 25 19 30 19 14 0z m809 -14 c16
-12 20 -21 12 -25 -20 -13 -11 -26 14 -20 14 3 25 2 25 -2 0 -5 -12 -10 -26
-10 -21 -2 -29 5 -41 34 -11 27 -17 32 -24 21 -14 -22 -11 -47 8 -57 14 -9 14
-11 -6 -21 -17 -10 -20 -16 -11 -26 8 -9 7 -14 -4 -18 -18 -7 -30 8 -20 24 3
6 7 31 9 56 3 39 16 63 35 63 3 0 16 -9 29 -19z m181 10 c0 -5 -9 -11 -21 -14
-16 -4 -18 -3 -8 9 13 16 29 19 29 5z m-665 -18 c-2 -8 4 -13 15 -13 11 0 20
5 20 11 0 8 5 8 15 -1 21 -18 19 -32 -5 -25 -11 4 -20 2 -20 -4 0 -6 9 -11 20
-11 11 0 20 -6 20 -13 0 -8 10 -19 23 -24 20 -10 19 -10 -10 -9 -18 0 -35 7
-38 14 -2 7 -15 16 -27 21 -13 4 -23 17 -23 27 0 11 -8 20 -20 22 -16 3 -17 1
-5 -7 17 -12 10 -14 -14 -5 -11 4 -12 9 -4 17 15 16 60 16 53 0z m169 -57 c9
-27 16 -51 16 -52 0 -2 -12 -1 -27 2 -29 5 -53 28 -53 51 0 7 -8 13 -17 14
-14 0 -13 3 6 12 19 9 26 8 36 -6 14 -19 30 -23 19 -5 -10 16 -13 51 -4 41 4
-4 15 -30 24 -57z m556 30 c0 -8 3 -21 6 -30 5 -14 1 -14 -40 0 -25 9 -46 20
-46 26 0 6 7 7 15 4 8 -3 22 -9 30 -12 10 -4 15 0 15 10 0 9 5 16 10 16 6 0
10 -6 10 -14z m-952 -21 c-3 -3 -9 2 -12 12 -6 14 -5 15 5 6 7 -7 10 -15 7
-18z m1012 15 c0 -5 -4 -10 -10 -10 -5 0 -10 5 -10 10 0 6 5 10 10 10 6 0 10
-4 10 -10z m-854 -28 c-22 -5 -30 3 -21 18 5 8 11 7 22 -2 15 -12 14 -13 -1
-16z m307 21 c3 -5 -1 -13 -8 -20 -10 -10 -14 -9 -18 1 -8 21 15 37 26 19z
m-593 -7 c0 -3 -4 -8 -10 -11 -5 -3 -10 -1 -10 4 0 6 5 11 10 11 6 0 10 -2 10
-4z m1186 -23 c-7 -7 -26 7 -26 19 0 6 6 6 15 -2 9 -7 13 -15 11 -17z m-1066
-3 c0 -5 -5 -10 -11 -10 -5 0 -7 5 -4 10 3 6 8 10 11 10 2 0 4 -4 4 -10z m845
1 c3 -5 1 -12 -5 -16 -5 -3 -10 1 -10 9 0 18 6 21 15 7z m283 -7 c-9 -9 -21
-13 -27 -10 -20 13 -11 26 16 26 25 0 26 -1 11 -16z m-1063 -4 c3 -5 -1 -10
-10 -10 -9 0 -13 5 -10 10 3 6 8 10 10 10 2 0 7 -4 10 -10z m529 -23 c-2 -59
-4 -68 -14 -62 -13 8 -13 51 0 76 14 25 15 24 14 -14z m326 18 c24 -8 50 -21
58 -27 12 -11 9 -14 -19 -20 -25 -5 -36 -3 -42 8 -4 8 -14 14 -21 14 -8 0 -16
9 -19 20 -6 24 -9 24 43 5z m-670 -27 c0 -13 -23 -5 -28 10 -2 7 2 10 12 6 9
-3 16 -11 16 -16z m-130 -5 c0 -10 3 -35 6 -55 4 -23 3 -38 -4 -38 -5 0 -13
20 -16 45 -4 25 -12 45 -17 45 -6 0 -7 5 -4 10 10 17 35 11 35 -7z m41 8 c-7
-5 -10 -14 -7 -20 9 -14 46 -14 46 0 0 5 5 7 12 3 15 -9 -21 -36 -39 -30 -7 3
-13 0 -14 -7 -1 -17 -17 24 -18 46 -1 10 6 17 17 17 13 0 14 -2 3 -9z m159 -1
c0 -5 9 -10 21 -10 11 0 18 -4 15 -9 -8 -13 -56 0 -56 15 0 8 5 14 10 14 6 0
10 -4 10 -10z m160 -27 c0 -7 -4 -13 -10 -13 -5 0 -10 12 -10 28 0 21 2 24 10
12 5 -8 10 -21 10 -27z m270 5 c0 -5 -7 -8 -15 -8 -8 0 -15 5 -15 11 0 5 -4 7
-10 4 -5 -3 -10 0 -10 8 0 13 4 13 25 4 14 -7 25 -15 25 -19z m117 5 c5 -13
-25 -26 -38 -17 -6 3 -5 11 2 20 13 16 31 14 36 -3z m-788 -30 c-1 -18 -3 -22
-6 -10 -4 14 -8 15 -18 7 -10 -9 -13 -7 -10 7 2 10 4 19 4 21 1 1 8 2 16 2 10
0 15 -9 14 -27z m221 11 c0 -2 -9 -4 -20 -4 -11 0 -20 4 -20 9 0 5 9 7 20 4
11 -3 20 -7 20 -9z m126 -11 c-3 -8 -1 -11 4 -8 6 3 10 -5 10 -19 0 -17 -5
-26 -16 -26 -10 0 -14 5 -10 15 3 9 -1 18 -9 21 -8 4 -15 14 -15 24 0 13 5 17
21 13 12 -4 18 -11 15 -20z m229 7 c3 -5 1 -10 -4 -10 -6 0 -11 -8 -11 -18 0
-10 -13 -28 -30 -40 l-30 -22 25 36 c14 20 25 43 25 50 0 16 16 19 25 4z m155
-16 c0 -2 -7 -4 -15 -4 -8 0 -15 4 -15 10 0 5 7 7 15 4 8 -4 15 -8 15 -10z
m-456 -21 c9 -24 -8 -37 -32 -24 -10 6 -22 7 -26 4 -3 -3 -6 -1 -6 6 0 6 10
16 23 21 31 12 34 12 41 -7z m172 -20 c-10 -10 -19 5 -10 18 6 11 8 11 12 0 2
-7 1 -15 -2 -18z m64 18 c0 -5 -7 -14 -15 -21 -16 -14 -18 -10 -9 14 6 17 24
22 24 7z m283 -7 c9 -3 13 -13 9 -26 -4 -17 -2 -20 13 -14 14 5 16 4 7 -7 -9
-10 -9 -16 0 -25 8 -8 4 -10 -18 -8 -26 3 -49 26 -26 26 6 0 8 10 5 21 -6 21
-7 21 -20 4 -12 -18 -13 -18 -13 2 0 12 6 24 13 26 6 3 13 6 14 6 1 1 8 -2 16
-5z m-79 -29 c3 -10 -1 -15 -14 -15 -20 0 -33 13 -23 24 11 11 31 6 37 -9z
m-1294 -9 c0 -3 -4 -8 -10 -11 -5 -3 -10 -1 -10 4 0 6 5 11 10 11 6 0 10 -2
10 -4z m850 0 c0 -11 -19 -15 -25 -6 -3 5 1 10 9 10 9 0 16 -2 16 -4z m328
-14 c6 -18 -15 -14 -22 4 -4 10 -1 14 6 12 6 -2 14 -10 16 -16z m-35 -23 c6
-24 44 -25 69 -2 18 16 22 15 84 -17 35 -18 64 -37 64 -42 0 -12 26 -38 38
-38 5 0 12 -8 15 -19 3 -14 0 -17 -15 -13 -17 4 -19 1 -13 -17 4 -15 2 -21 -9
-21 -20 0 -31 37 -15 56 9 11 9 18 1 26 -26 26 -47 -27 -26 -68 15 -29 11 -40
-31 -76 -21 -18 -74 -16 -86 4 -3 5 -10 9 -15 9 -5 -1 -9 7 -9 17 0 23 25 22
39 -3 6 -11 12 -22 13 -24 2 -2 9 1 17 8 17 14 13 77 -5 73 -65 -16 -69 -15
-69 12 0 22 4 26 30 26 17 0 30 5 30 10 0 15 -51 12 -84 -5 -35 -19 -40 -19
-33 0 7 18 -9 30 -16 13 -4 -10 -8 -9 -16 2 -7 11 -5 19 10 33 22 20 25 57 7
76 -11 10 -10 11 4 6 9 -4 18 -15 21 -26z m-733 11 c0 -5 -5 -10 -11 -10 -5 0
-7 5 -4 10 3 6 8 10 11 10 2 0 4 -4 4 -10z m-1359 -23 c-10 -9 -11 -8 -5 6 3
10 9 15 12 12 3 -3 0 -11 -7 -18z m2037 -9 c-26 -33 -48 -47 -48 -29 0 12 51
61 64 61 5 0 -3 -14 -16 -32z m-68 18 c0 -3 -4 -8 -10 -11 -5 -3 -10 -1 -10 4
0 6 5 11 10 11 6 0 10 -2 10 -4z m-133 -22 c-3 -3 -12 -4 -19 -1 -8 3 -5 6 6
6 11 1 17 -2 13 -5z m583 -4 c0 -5 -4 -10 -9 -10 -6 0 -13 5 -16 10 -3 6 1 10
9 10 9 0 16 -4 16 -10z m-810 -10 c0 -5 -2 -10 -4 -10 -3 0 -8 5 -11 10 -3 6
-1 10 4 10 6 0 11 -4 11 -10z m95 -10 c3 -5 -1 -10 -9 -10 -9 0 -16 5 -16 10
0 6 4 10 9 10 6 0 13 -4 16 -10z m-495 -32 c0 -5 -7 -8 -15 -8 -17 0 -18 2 -9
25 5 13 8 14 15 3 5 -7 9 -16 9 -20z m45 12 c-2 -31 -15 -37 -15 -7 0 15 4 27
8 27 5 0 8 -9 7 -20z m415 6 c0 -11 -19 -15 -25 -6 -3 5 1 10 9 10 9 0 16 -2
16 -4z m-910 -25 c0 -12 -20 -25 -27 -18 -7 7 6 27 18 27 5 0 9 -4 9 -9z
m1650 -5 c0 -11 -19 -15 -25 -6 -3 5 1 10 9 10 9 0 16 -2 16 -4z m-923 -31 c0
-8 -4 -15 -9 -15 -4 0 -8 7 -8 15 0 8 4 15 8 15 5 0 9 -7 9 -15z m-37 -2 c0
-14 -15 -29 -27 -28 -7 0 -12 5 -10 10 1 6 5 9 10 8 4 -2 7 2 7 7 0 6 5 10 10
10 6 0 10 -3 10 -7z m110 -7 c0 -11 -19 -15 -25 -6 -3 5 1 10 9 10 9 0 16 -2
16 -4z m237 -18 c-3 -8 -6 -5 -6 6 -1 11 2 17 5 13 3 -3 4 -12 1 -19z m738
-18 c3 -5 1 -10 -4 -10 -6 0 -11 5 -11 10 0 6 2 10 4 10 3 0 8 -4 11 -10z
m-167 -28 c-10 -2 -18 -8 -18 -13 0 -6 -5 -7 -11 -4 -6 5 -4 12 8 20 10 7 22
10 28 7 5 -4 2 -8 -7 -10z m-898 -2 c0 -5 -2 -10 -4 -10 -3 0 -8 5 -11 10 -3
6 -1 10 4 10 6 0 11 -4 11 -10z m-175 -40 c-9 -14 -25 5 -25 30 0 12 3 12 16
-2 9 -9 13 -21 9 -28z m-249 3 c-10 -10 -19 5 -10 18 6 11 8 11 12 0 2 -7 1
-15 -2 -18z m1414 -3 c0 -5 -4 -10 -10 -10 -5 0 -10 5 -10 10 0 6 5 10 10 10
6 0 10 -4 10 -10z"/>
<path d="M1740 3045 c0 -18 24 -30 40 -20 8 5 5 11 -7 21 -24 18 -33 17 -33
-1z"/>
<path d="M1820 3050 c0 -5 4 -10 9 -10 6 0 13 5 16 10 3 6 -1 10 -9 10 -9 0
-16 -4 -16 -10z"/>
<path d="M1630 2946 c0 -9 5 -16 10 -16 6 0 10 4 10 9 0 6 -4 13 -10 16 -5 3
-10 -1 -10 -9z"/>
<path d="M1580 2940 c0 -5 5 -10 10 -10 6 0 10 5 10 10 0 6 -4 10 -10 10 -5 0
-10 -4 -10 -10z"/>
<path d="M1685 2920 c-3 -5 -2 -10 4 -10 5 0 13 5 16 10 3 6 2 10 -4 10 -5 0
-13 -4 -16 -10z"/>
<path d="M1210 2842 c-23 -4 -45 -43 -30 -52 9 -6 8 -10 -5 -17 -13 -8 -14
-12 -5 -18 15 -9 27 4 32 35 2 15 9 25 20 25 9 0 19 2 21 5 8 9 -17 26 -33 22z"/>
<path d="M1365 2820 c3 -5 8 -10 11 -10 2 0 4 5 4 10 0 6 -5 10 -11 10 -5 0
-7 -4 -4 -10z"/>
<path d="M1460 2791 c-6 -12 -7 -21 -1 -21 10 0 24 30 17 37 -2 3 -9 -5 -16
-16z"/>
<path d="M1236 2784 c-9 -24 -2 -26 12 -4 7 11 8 20 3 20 -5 0 -12 -7 -15 -16z"/>
<path d="M1686 2774 c-20 -19 -12 -34 17 -33 20 1 20 1 -3 8 l-24 7 24 17 c13
9 19 17 13 17 -6 0 -19 -7 -27 -16z"/>
<path d="M1361 2753 c-17 -15 -31 -33 -31 -39 0 -7 -7 -15 -16 -18 -8 -3 -12
-11 -9 -17 8 -12 44 19 77 64 28 38 17 43 -21 10z"/>
<path d="M1635 2770 c-3 -5 -1 -10 4 -10 6 0 11 5 11 10 0 6 -2 10 -4 10 -3 0
-8 -4 -11 -10z"/>
<path d="M1590 2750 c-8 -5 -11 -12 -8 -16 4 -3 14 1 23 10 18 17 9 21 -15 6z"/>
<path d="M1200 2746 c0 -2 7 -6 15 -10 8 -3 15 -1 15 4 0 6 -7 10 -15 10 -8 0
-15 -2 -15 -4z"/>
<path d="M1450 2720 c-8 -5 -10 -10 -5 -10 6 0 17 5 25 10 8 5 11 10 5 10 -5
0 -17 -5 -25 -10z"/>
<path d="M2053 2722 c-13 -2 -23 -7 -23 -12 0 -13 61 -23 72 -12 13 13 -19 29
-49 24z"/>
<path d="M1540 2710 c0 -13 11 -13 30 0 12 8 11 10 -7 10 -13 0 -23 -4 -23
-10z"/>
<path d="M2028 2683 c7 -3 16 -2 19 1 4 3 -2 6 -13 5 -11 0 -14 -3 -6 -6z"/>
<path d="M1360 2665 c-7 -9 -8 -15 -2 -15 5 0 12 7 16 15 3 8 4 15 2 15 -2 0
-9 -7 -16 -15z"/>
<path d="M2095 2670 c3 -5 15 -10 26 -10 11 0 17 5 14 10 -3 6 -15 10 -26 10
-11 0 -17 -4 -14 -10z"/>
<path d="M1501 2649 c-12 -5 -20 -13 -16 -18 3 -5 -4 -16 -15 -24 -21 -14 -20
-15 19 -46 42 -33 61 -34 59 -3 -1 9 2 33 5 53 6 30 4 37 -11 41 -10 3 -28 1
-41 -3z"/>
<path d="M1745 2650 c4 -6 11 -8 16 -5 14 9 11 15 -7 15 -8 0 -12 -5 -9 -10z"/>
<path d="M1955 2610 c-4 -6 9 -10 31 -10 41 0 41 8 1 16 -14 2 -29 0 -32 -6z"/>
<path d="M1745 2590 c-3 -5 -1 -10 4 -10 6 0 11 5 11 10 0 6 -2 10 -4 10 -3 0
-8 -4 -11 -10z"/>
<path d="M2170 2570 c0 -5 5 -10 11 -10 5 0 7 5 4 10 -3 6 -8 10 -11 10 -2 0
-4 -4 -4 -10z"/>
<path d="M2210 2550 c-13 -8 -13 -10 2 -10 9 0 18 -6 21 -12 4 -10 7 -10 18 0
12 11 12 14 -1 22 -19 12 -21 12 -40 0z"/>
<path d="M1723 2537 c9 -8 17 -19 17 -25 0 -18 17 -23 24 -7 3 10 -5 20 -27
30 -24 12 -27 12 -14 2z"/>
<path d="M2144 2518 c-3 -4 4 -8 15 -8 11 0 22 4 26 9 3 6 -4 9 -16 8 -11 -1
-23 -5 -25 -9z"/>
<path d="M2133 2465 c9 -7 13 -16 9 -20 -4 -5 1 -6 10 -2 9 3 19 0 22 -9 3 -8
15 -14 27 -14 22 0 18 15 -4 15 -7 0 -11 8 -9 18 2 9 -3 17 -10 18 -7 0 -24 2
-37 3 -21 3 -22 1 -8 -9z"/>
<path d="M1717 2463 c-3 -5 -1 -17 4 -28 7 -17 8 -17 8 8 1 27 -4 34 -12 20z"/>
<path d="M1980 2433 c0 -4 10 -13 23 -18 14 -7 21 -17 19 -30 -2 -16 -1 -17 7
-5 6 9 6 19 1 26 -6 6 -7 14 -3 17 3 4 1 7 -5 7 -5 0 -17 3 -26 6 -9 3 -16 2
-16 -3z"/>
<path d="M2277 2419 c8 -8 16 -8 30 0 16 9 14 10 -11 11 -22 0 -27 -3 -19 -11z"/>
<path d="M887 2361 c-4 -18 -7 -44 -7 -57 0 -13 -4 -24 -9 -24 -5 0 -11 -9
-14 -20 -3 -11 -1 -20 4 -20 5 0 9 7 9 15 0 8 4 15 9 15 11 0 25 78 19 106 -3
13 -6 8 -11 -15z"/>
<path d="M2137 2369 c7 -7 15 -10 18 -7 3 3 -2 9 -12 12 -14 6 -15 5 -6 -5z"/>
<path d="M951 2358 c-1 -9 -8 -23 -16 -32 -8 -8 -11 -17 -7 -20 12 -7 36 39
29 56 -4 9 -6 8 -6 -4z"/>
<path d="M1837 2286 c-7 -18 18 -42 28 -26 3 5 -1 10 -9 10 -10 0 -13 6 -10
15 4 8 4 15 1 15 -3 0 -7 -6 -10 -14z"/>
<path d="M915 2280 c3 -5 8 -10 11 -10 2 0 4 5 4 10 0 6 -5 10 -11 10 -5 0 -7
-4 -4 -10z"/>
<path d="M2086 2232 c-3 -5 1 -15 9 -22 21 -17 27 -9 10 13 -7 10 -16 14 -19
9z"/>
<path d="M2120 2236 c0 -2 8 -10 18 -17 15 -13 16 -12 3 4 -13 16 -21 21 -21
13z"/>
<path d="M796 2215 c-9 -26 -7 -32 5 -12 6 10 9 21 6 23 -2 3 -7 -2 -11 -11z"/>
<path d="M905 2180 c3 -5 8 -10 11 -10 2 0 4 5 4 10 0 6 -5 10 -11 10 -5 0 -7
-4 -4 -10z"/>
<path d="M718 2156 c-10 -15 -15 -37 -14 -61 2 -21 0 -52 -5 -69 -6 -21 -6
-27 2 -19 6 6 12 36 13 66 1 30 7 62 15 70 7 9 11 21 9 26 -1 5 -11 -1 -20
-13z"/>
<path d="M830 2155 c-7 -9 -8 -15 -2 -15 5 0 12 7 16 15 3 8 4 15 2 15 -2 0
-9 -7 -16 -15z"/>
<path d="M1987 2100 c-3 -11 -1 -18 4 -14 5 3 9 1 9 -5 0 -15 41 -51 59 -51
11 0 11 3 -4 13 -10 8 -15 19 -12 25 4 6 0 8 -11 5 -14 -3 -19 1 -18 18 1 28
-20 36 -27 9z"/>
<path d="M793 2103 c-7 -3 -13 -9 -13 -15 0 -5 -11 -24 -24 -41 -12 -18 -27
-39 -31 -47 -7 -12 -6 -13 7 -3 8 7 18 10 22 6 4 -4 4 0 1 9 -4 10 6 29 26 52
32 37 35 47 12 39z"/>
<path d="M1657 1978 c-3 -10 0 -19 8 -22 15 -5 31 11 21 21 -3 4 -6 0 -7 -8 0
-8 -3 -6 -8 5 -6 17 -8 17 -14 4z"/>
<path d="M810 1950 c-12 -8 -11 -10 7 -10 12 0 25 5 28 10 8 13 -15 13 -35 0z"/>
<path d="M2010 1930 c0 -5 5 -10 10 -10 6 0 10 5 10 10 0 6 -4 10 -10 10 -5 0
-10 -4 -10 -10z"/>
<path d="M2010 1886 c0 -8 3 -16 8 -19 4 -2 1 -2 -6 0 -24 6 -34 -9 -15 -23
17 -13 17 -13 -5 -14 -23 0 -23 0 4 -25 33 -30 37 -31 29 -5 -7 22 4 27 22 9
7 -7 12 -3 15 15 3 15 -1 31 -8 37 -8 6 -14 18 -14 25 0 8 -7 14 -15 14 -8 0
-15 -6 -15 -14z"/>
<path d="M1930 1819 c0 -12 37 -49 50 -49 6 0 10 -7 10 -15 0 -8 9 -19 20 -25
18 -10 18 -8 -2 30 -20 37 -78 81 -78 59z"/>
<path d="M630 1752 c0 -4 9 -8 20 -9 11 -1 20 2 20 5 0 4 -9 8 -20 9 -11 1
-20 -2 -20 -5z"/>
<path d="M1894 1734 c6 -24 5 -26 -19 -20 -32 8 -32 -7 0 -28 35 -23 58 -21
50 4 -8 26 2 25 26 -2 l19 -23 -12 35 c-15 49 -29 65 -39 48 -7 -10 -9 -10 -9
0 0 6 -5 12 -11 12 -7 0 -9 -10 -5 -26z"/>
<path d="M1960 1746 c0 -8 5 -18 10 -21 6 -3 10 1 10 9 0 8 -4 18 -10 21 -5 3
-10 -1 -10 -9z"/>
<path d="M773 1743 c9 -2 23 -2 30 0 6 3 -1 5 -18 5 -16 0 -22 -2 -12 -5z"/>
<path d="M1420 1731 c0 -15 29 -33 41 -25 9 5 7 11 -6 21 -22 15 -35 17 -35 4z"/>
<path d="M1380 1711 c0 -13 60 -55 67 -48 6 6 -47 56 -59 57 -5 0 -8 -4 -8 -9z"/>
<path d="M1846 1665 c-13 -10 -17 -22 -14 -40 3 -14 1 -25 -3 -25 -5 0 -9 4
-9 9 0 5 -7 11 -15 15 -8 3 -15 1 -15 -4 0 -5 7 -15 15 -24 8 -8 15 -25 15
-38 l0 -22 -17 24 c-9 14 -24 32 -32 40 -13 13 -14 13 -6 -5 4 -11 10 -39 11
-63 3 -32 1 -41 -9 -35 -7 4 -5 -3 4 -17 26 -39 38 -36 29 7 -9 39 -5 59 6 27
15 -46 19 -46 22 1 4 71 8 81 29 64 15 -13 15 -12 0 12 -19 29 -13 63 9 55 15
-6 18 3 6 21 -5 8 -12 8 -26 -2z"/>
<path d="M1890 1621 c0 -6 4 -13 10 -16 6 -3 7 1 4 9 -7 18 -14 21 -14 7z"/>
<path d="M3197 1580 c-5 -21 17 -59 29 -48 4 4 1 15 -7 24 -13 16 -12 17 9 11
23 -5 23 -5 6 14 -22 24 -30 24 -37 -1z"/>
<path d="M1174 1571 c20 -22 26 -25 26 -13 0 4 -10 13 -22 21 -23 14 -23 14
-4 -8z"/>
<path d="M3280 1570 c0 -5 7 -10 15 -10 8 0 15 5 15 10 0 6 -7 10 -15 10 -8 0
-15 -4 -15 -10z"/>
<path d="M1730 1557 c0 -7 7 -22 15 -33 12 -16 14 -17 15 -2 0 9 3 23 6 32 4
12 0 16 -15 16 -12 0 -21 -6 -21 -13z"/>
<path d="M800 1532 c0 -12 19 -26 26 -19 2 2 -2 10 -11 17 -9 8 -15 8 -15 2z"/>
<path d="M2877 1521 c-3 -12 1 -22 10 -26 11 -4 14 0 10 14 -3 11 0 22 7 25 6
2 4 5 -5 5 -9 1 -19 -8 -22 -18z"/>
<path d="M3132 1505 c15 -14 32 -25 38 -25 5 0 10 -4 10 -10 0 -5 7 -10 17
-10 14 0 14 2 -2 20 -10 11 -24 20 -30 20 -7 0 -15 7 -19 15 -3 8 -13 15 -23
15 -15 0 -13 -5 9 -25z"/>
<path d="M3192 1515 c9 -10 21 -16 28 -13 7 2 -1 10 -16 17 -27 12 -28 11 -12
-4z"/>
<path d="M2952 1513 c-6 -2 -10 -9 -6 -14 8 -14 21 -11 28 6 6 15 1 17 -22 8z"/>
<path d="M840 1496 c0 -2 9 -6 20 -9 11 -3 18 -1 14 4 -5 9 -34 13 -34 5z"/>
<path d="M3064 1480 l-28 -19 29 4 c17 2 36 4 43 4 16 1 15 18 -2 24 -7 3 -26
-3 -42 -13z"/>
<path d="M2805 1480 c-3 -5 -1 -10 6 -10 7 0 20 -7 30 -16 11 -10 19 -12 24
-5 3 6 -1 11 -10 11 -8 0 -18 7 -21 15 -7 17 -20 20 -29 5z"/>
<path d="M3226 1468 c-8 -32 -8 -38 5 -38 6 0 9 6 6 14 -3 8 -1 17 6 19 9 3 9
8 1 16 -9 9 -13 7 -18 -11z"/>
<path d="M2886 1471 c-4 -5 -2 -12 3 -15 5 -4 12 -2 15 3 4 5 2 12 -3 15 -5 4
-12 2 -15 -3z"/>
<path d="M770 1446 c0 -2 7 -7 16 -10 8 -3 12 -2 9 4 -6 10 -25 14 -25 6z"/>
<path d="M2540 1439 c0 -11 21 -11 39 0 9 6 5 9 -13 9 -14 0 -26 -4 -26 -9z"/>
<path d="M3151 1441 c-9 -6 -7 -10 8 -14 12 -3 21 -1 21 3 0 14 -15 19 -29 11z"/>
<path d="M2480 1390 c0 -5 5 -10 10 -10 6 0 10 5 10 10 0 6 -4 10 -10 10 -5 0
-10 -4 -10 -10z"/>
<path d="M3200 1395 c0 -2 14 -26 30 -52 18 -28 30 -58 28 -73 -2 -17 2 -25
12 -25 11 0 15 13 16 48 2 48 -12 66 -18 25 -3 -21 -4 -21 -9 5 -5 22 -3 27
13 27 15 0 17 3 8 20 -6 10 -17 17 -24 14 -8 -3 -17 -1 -21 5 -6 11 -35 16
-35 6z"/>
<path d="M2765 1380 c3 -5 10 -10 16 -10 5 0 9 5 9 10 0 6 -7 10 -16 10 -8 0
-12 -4 -9 -10z"/>
<path d="M3050 1376 c0 -2 7 -9 15 -16 13 -11 14 -10 9 4 -5 14 -24 23 -24 12z"/>
<path d="M3096 1372 c-10 -16 1 -32 22 -32 11 0 13 3 6 8 -6 4 -13 14 -16 22
-3 10 -6 11 -12 2z"/>
<path d="M3170 1370 c0 -5 5 -10 11 -10 5 0 7 5 4 10 -3 6 -8 10 -11 10 -2 0
-4 -4 -4 -10z"/>
<path d="M2985 1339 c-7 -11 29 -48 47 -49 4 0 5 -6 3 -12 -2 -7 2 -21 9 -31
11 -14 19 -16 40 -7 29 11 34 25 10 34 -22 9 -24 8 -18 -9 4 -9 0 -15 -10 -15
-9 0 -16 8 -16 18 0 26 -56 87 -65 71z"/>
<path d="M3150 1340 c0 -5 6 -10 14 -10 8 0 17 -12 19 -27 3 -23 4 -21 6 10 1
31 -2 37 -19 37 -11 0 -20 -4 -20 -10z"/>
<path d="M3047 1325 c3 -8 9 -12 14 -9 12 7 11 11 -5 17 -10 4 -13 1 -9 -8z"/>
<path d="M3090 1310 c0 -5 5 -10 11 -10 5 0 7 5 4 10 -3 6 -8 10 -11 10 -2 0
-4 -4 -4 -10z"/>
<path d="M3330 1301 c0 -5 7 -11 14 -14 10 -4 13 -1 9 9 -6 15 -23 19 -23 5z"/>
<path d="M2530 1291 c0 -15 46 -61 61 -61 5 0 9 7 9 15 0 8 -9 15 -19 15 -11
0 -27 10 -35 22 -9 13 -16 17 -16 9z"/>
<path d="M3315 1250 c3 -5 8 -10 11 -10 2 0 4 5 4 10 0 6 -5 10 -11 10 -5 0
-7 -4 -4 -10z"/>
<path d="M2630 1236 c0 -8 -6 -16 -12 -19 -10 -3 -10 -7 0 -20 8 -9 11 -21 8
-26 -4 -5 -2 -12 3 -15 5 -3 8 17 8 44 0 28 -2 50 -4 50 -2 0 -3 -6 -3 -14z"/>
<path d="M2910 1236 c0 -9 5 -16 10 -16 6 0 10 4 10 9 0 6 -4 13 -10 16 -5 3
-10 -1 -10 -9z"/>
<path d="M3010 1235 c0 -8 5 -15 10 -15 6 0 10 -5 10 -11 0 -5 -4 -8 -9 -4 -5
3 -12 1 -16 -5 -7 -11 5 -13 29 -4 22 8 20 31 -4 44 -16 9 -20 8 -20 -5z"/>
<path d="M2823 1216 c9 -7 17 -16 17 -19 0 -11 56 -67 62 -62 8 8 -2 45 -12
45 -4 0 -20 11 -36 25 -16 14 -33 25 -39 25 -5 0 -2 -7 8 -14z"/>
<path d="M3070 1199 c0 -5 5 -7 10 -4 6 3 10 8 10 11 0 2 -4 4 -10 4 -5 0 -10
-5 -10 -11z"/>
<path d="M2990 1174 c1 -15 27 -44 39 -44 7 0 11 5 9 12 -5 14 -48 43 -48 32z"/>
<path d="M2952 1150 c0 -14 2 -19 5 -12 2 6 2 18 0 25 -3 6 -5 1 -5 -13z"/>
<path d="M2870 1115 c0 -14 40 -38 49 -29 6 5 -30 44 -41 44 -4 0 -8 -7 -8
-15z"/>
<path d="M2926 1116 c3 -8 14 -16 25 -19 23 -6 24 -3 3 17 -19 20 -35 21 -28
2z"/>
<path d="M3160 1111 c0 -12 5 -21 10 -21 6 0 10 6 10 14 0 8 -4 18 -10 21 -5
3 -10 -3 -10 -14z"/>
<path d="M2815 1108 c-4 -9 -4 -22 0 -28 10 -16 45 -12 45 5 0 8 -6 15 -14 15
-8 0 -16 6 -19 13 -3 8 -7 7 -12 -5z"/>
<path d="M3305 1100 c-3 -5 1 -10 9 -10 9 0 16 5 16 10 0 6 -4 10 -9 10 -6 0
-13 -4 -16 -10z"/>
<path d="M3231 1083 c0 -4 4 -17 9 -28 8 -19 9 -19 9 2 1 12 -3 25 -9 28 -5 3
-10 3 -9 -2z"/>
<path d="M3185 1059 c-4 -12 -2 -26 4 -32 8 -8 11 -2 11 21 0 37 -6 41 -15 11z"/>
<path d="M2898 1024 c4 -22 6 -24 14 -10 9 16 3 36 -11 36 -5 0 -6 -12 -3 -26z"/>
<path d="M2970 1029 c0 -13 17 -20 34 -13 24 9 19 22 -9 22 -14 0 -25 -4 -25
-9z"/>
<path d="M3410 1331 c0 -6 5 -13 10 -16 6 -3 10 1 10 9 0 9 -4 16 -10 16 -5 0
-10 -4 -10 -9z"/>
<path d="M3290 260 c0 -5 5 -10 10 -10 6 0 10 5 10 10 0 6 -4 10 -10 10 -5 0
-10 -4 -10 -10z"/>
<path d="M3215 230 c3 -5 8 -10 11 -10 2 0 4 5 4 10 0 6 -5 10 -11 10 -5 0 -7
-4 -4 -10z"/>
<path d="M3365 140 c-4 -7 -1 -16 6 -21 17 -10 26 8 11 23 -6 6 -12 6 -17 -2z"/>
<path d="M1766 3903 c-12 -12 -6 -43 9 -43 8 0 15 9 15 19 0 21 -13 34 -24 24z"/>
</g>
</svg>
